<svg width="1080" height="472" viewBox="0 0 1080 472" xmlns="http://www.w3.org/2000/svg">
<style><![CDATA[text{font-family:-apple-system,BlinkMacSystemFont,Segoe UI,Roboto,Ubuntu,Helvetica Neue,Arial,Noto Sans,sans-serif}]]></style>
<rect width="1080" height="472" rx="16" fill="#0d0d1a"/>
<rect x="8" y="8" width="1064" height="456" rx="14" fill="#1b1b2f" stroke="#3a3a50"/>
<text x="24" y="40" font-size="20" fill="#d0c0ff" font-weight="600">Top Spotify Tracks</text>
<text x="24" y="64" font-size="13" fill="#b0a0ff">Last 4 weeks · Updated 2026-03-19 12:36 UTC</text>
<circle cx="36" cy="90" r="11" fill="#a070ff"/>
<text x="36" y="94" text-anchor="middle" font-size="12" fill="#0d0d1a" font-weight="700">1</text>
<a href="https://open.spotify.com/track/5vfCdwOheQGcrR91ATpL2k" target="_blank" rel="noopener noreferrer">
<text x="56" y="100" font-size="14" fill="#e0dfff" font-weight="600">女儿国 (《西游记女儿国》电影主题曲)</text>
</a>
<text x="56" y="118" font-size="12" fill="#b0a0ff">Jane Zhang, Ronghao Li, 李荣浩</text>
<rect x="56" y="124" width="918" height="8" rx="4" fill="#3a3a50"/>
<rect x="56" y="124" width="918" height="8" rx="4" fill="#a070ff"/>
<circle cx="36" cy="138" r="11" fill="#a070ff"/>
<text x="36" y="142" text-anchor="middle" font-size="12" fill="#0d0d1a" font-weight="700">2</text>
<a href="https://open.spotify.com/track/3uI2KolgU1Pt41ywffsggr" target="_blank" rel="noopener noreferrer">
<text x="56" y="148" font-size="14" fill="#e0dfff" font-weight="600">Voyaging Star&#x27;s Farewell</text>
</a>
<text x="56" y="166" font-size="12" fill="#b0a0ff">Wuthering Waves, Tarokiki</text>
<rect x="56" y="172" width="918" height="8" rx="4" fill="#3a3a50"/>
<rect x="56" y="172" width="807" height="8" rx="4" fill="#a070ff"/>
<circle cx="36" cy="186" r="11" fill="#a070ff"/>
<text x="36" y="190" text-anchor="middle" font-size="12" fill="#0d0d1a" font-weight="700">3</text>
<a href="https://open.spotify.com/track/2qOitAAyMgHOs0cMilqf8k" target="_blank" rel="noopener noreferrer">
<text x="56" y="196" font-size="14" fill="#e0dfff" font-weight="600">我愛他</text>
</a>
<text x="56" y="214" font-size="12" fill="#b0a0ff">Della</text>
<rect x="56" y="220" width="918" height="8" rx="4" fill="#3a3a50"/>
<rect x="56" y="220" width="697" height="8" rx="4" fill="#a070ff"/>
<circle cx="36" cy="234" r="11" fill="#a070ff"/>
<text x="36" y="238" text-anchor="middle" font-size="12" fill="#0d0d1a" font-weight="700">4</text>
<a href="https://open.spotify.com/track/4vdX5mQE0oXkflFqsqQkUP" target="_blank" rel="noopener noreferrer">
<text x="56" y="244" font-size="14" fill="#e0dfff" font-weight="600">愛錯</text>
</a>
<text x="56" y="262" font-size="12" fill="#b0a0ff">Leehom Wang</text>
<rect x="56" y="268" width="918" height="8" rx="4" fill="#3a3a50"/>
<rect x="56" y="268" width="587" height="8" rx="4" fill="#a070ff"/>
<circle cx="36" cy="282" r="11" fill="#a070ff"/>
<text x="36" y="286" text-anchor="middle" font-size="12" fill="#0d0d1a" font-weight="700">5</text>
<a href="https://open.spotify.com/track/6qiDtcYiZOQ4HRuC8U55EM" target="_blank" rel="noopener noreferrer">
<text x="56" y="292" font-size="14" fill="#e0dfff" font-weight="600">生死相隨 (《秦時麗人明月心》電視劇片尾曲)</text>
</a>
<text x="56" y="310" font-size="12" fill="#b0a0ff">崔子格, 楊培安 (Roger Yang)</text>
<rect x="56" y="316" width="918" height="8" rx="4" fill="#3a3a50"/>
<rect x="56" y="316" width="477" height="8" rx="4" fill="#a070ff"/>
<circle cx="36" cy="330" r="11" fill="#a070ff"/>
<text x="36" y="334" text-anchor="middle" font-size="12" fill="#0d0d1a" font-weight="700">6</text>
<a href="https://open.spotify.com/track/7LCznX3ZIHiOmNTr0RVQnc" target="_blank" rel="noopener noreferrer">
<text x="56" y="340" font-size="14" fill="#e0dfff" font-weight="600">回憶的沙漏</text>
</a>
<text x="56" y="358" font-size="12" fill="#b0a0ff">G.E.M.</text>
<rect x="56" y="364" width="918" height="8" rx="4" fill="#3a3a50"/>
<rect x="56" y="364" width="367" height="8" rx="4" fill="#a070ff"/>
<circle cx="36" cy="378" r="11" fill="#a070ff"/>
<text x="36" y="382" text-anchor="middle" font-size="12" fill="#0d0d1a" font-weight="700">7</text>
<a href="https://open.spotify.com/track/7ronMHt2hVGfpag6m27wd9" target="_blank" rel="noopener noreferrer">
<text x="56" y="388" font-size="14" fill="#e0dfff" font-weight="600">一千年以後</text>
</a>
<text x="56" y="406" font-size="12" fill="#b0a0ff">JJ Lin</text>
<rect x="56" y="412" width="918" height="8" rx="4" fill="#3a3a50"/>
<rect x="56" y="412" width="275" height="8" rx="4" fill="#a070ff"/>
</svg>