<svg width="720" height="356" viewBox="0 0 720 356" xmlns="http://www.w3.org/2000/svg" role="img" aria-label="Spotify Top Tracks">
<style><![CDATA[text{font-family:-apple-system,BlinkMacSystemFont,Segoe UI,Roboto,Ubuntu,Helvetica Neue,Arial,Noto Sans,sans-serif}]]></style>
<rect width="720" height="356" rx="16" fill="#0d1117"/>
<rect x="8" y="8" width="704" height="340" rx="14" fill="#161b22" stroke="#30363d"/>
<text x="24" y="40" font-size="20" fill="#c9d1d9" font-weight="600">Top Spotify Tracks</text>
<text x="24" y="64" font-size="13" fill="#8b949e">Last 4 weeks · Updated 2025-08-25 06:16 UTC</text>
<circle cx="36" cy="70" r="11" fill="#58a6ff"/>
<text x="36" y="74" text-anchor="middle" font-size="12" fill="#0d1117" font-weight="700">1</text>
<a href="https://open.spotify.com/track/1SPZzj8QzOwZoAGKXMGLGJ" target="_blank" rel="noopener noreferrer"><text x="56" y="80" font-size="14" fill="#e6edf3" font-weight="600">誠實地想你</text></a>
<text x="56" y="98" font-size="12" fill="#8b949e">Amber Kuo</text>
<rect x="56" y="104" width="512" height="8" rx="4" fill="#30363d"/>
<rect x="56" y="104" width="512" height="8" rx="4" fill="#58a6ff"/>
<circle cx="36" cy="118" r="11" fill="#58a6ff"/>
<text x="36" y="122" text-anchor="middle" font-size="12" fill="#0d1117" font-weight="700">2</text>
<a href="https://open.spotify.com/track/1ZSleGniKMWNrWvK5cGALO" target="_blank" rel="noopener noreferrer"><text x="56" y="128" font-size="14" fill="#e6edf3" font-weight="600">路過人間 (電視劇《我們與惡的距離》插曲)</text></a>
<text x="56" y="146" font-size="12" fill="#8b949e">Yisa Yu</text>
<rect x="56" y="152" width="512" height="8" rx="4" fill="#30363d"/>
<rect x="56" y="152" width="450" height="8" rx="4" fill="#58a6ff"/>
<circle cx="36" cy="166" r="11" fill="#58a6ff"/>
<text x="36" y="170" text-anchor="middle" font-size="12" fill="#0d1117" font-weight="700">3</text>
<a href="https://open.spotify.com/track/6jTK3YxlFysC8g0Ye9tbPK" target="_blank" rel="noopener noreferrer"><text x="56" y="176" font-size="14" fill="#e6edf3" font-weight="600">梦回还</text></a>
<text x="56" y="194" font-size="12" fill="#8b949e">呦猫UNEKO</text>
<rect x="56" y="200" width="512" height="8" rx="4" fill="#30363d"/>
<rect x="56" y="200" width="389" height="8" rx="4" fill="#58a6ff"/>
<circle cx="36" cy="214" r="11" fill="#58a6ff"/>
<text x="36" y="218" text-anchor="middle" font-size="12" fill="#0d1117" font-weight="700">4</text>
<a href="https://open.spotify.com/track/1MAv2SJPGVVDHyFlhflmYR" target="_blank" rel="noopener noreferrer"><text x="56" y="224" font-size="14" fill="#e6edf3" font-weight="600">親愛的那不是愛情</text></a>
<text x="56" y="242" font-size="12" fill="#8b949e">Angela Chang</text>
<rect x="56" y="248" width="512" height="8" rx="4" fill="#30363d"/>
<rect x="56" y="248" width="327" height="8" rx="4" fill="#58a6ff"/>
<circle cx="36" cy="262" r="11" fill="#58a6ff"/>
<text x="36" y="266" text-anchor="middle" font-size="12" fill="#0d1117" font-weight="700">5</text>
<a href="https://open.spotify.com/track/1K30lsrpvTR0ytSICU2Z3X" target="_blank" rel="noopener noreferrer"><text x="56" y="272" font-size="14" fill="#e6edf3" font-weight="600">回音</text></a>
<text x="56" y="290" font-size="12" fill="#8b949e">余又</text>
<rect x="56" y="296" width="512" height="8" rx="4" fill="#30363d"/>
<rect x="56" y="296" width="266" height="8" rx="4" fill="#58a6ff"/>
</svg>